<?xml version="1.0" standalone="no"?>
<!DOCTYPE svg PUBLIC "-//W3C//DTD SVG 20010904//EN"
 "http://www.w3.org/TR/2001/REC-SVG-20010904/DTD/svg10.dtd">
<svg version="1.0" xmlns="http://www.w3.org/2000/svg"
 width="1036.000000pt" height="1036.000000pt" viewBox="0 0 1036.000000 1036.000000"
 preserveAspectRatio="xMidYMid meet">
<metadata>
Created by potrace 1.11, written by Peter Selinger 2001-2013
</metadata>
<g transform="translate(0.000000,1036.000000) scale(0.100000,-0.100000)"
fill="#000000" stroke="none">
<path d="M0 5969 c0 -2111 0 -2132 21 -2232 28 -142 70 -261 144 -412 115
-235 247 -412 419 -564 294 -259 593 -419 897 -481 94 -19 139 -20 1412 -20
l1316 0 559 643 c307 353 643 738 745 856 l187 214 0 2064 0 2063 -1019 0
-1020 0 -19 -25 c-11 -14 -41 -87 -67 -162 -77 -230 -157 -323 -317 -372 -128
-39 -157 -53 -203 -93 -58 -51 -98 -135 -129 -270 -31 -130 -60 -190 -122
-252 -53 -53 -127 -94 -252 -138 -246 -86 -327 -173 -445 -478 -31 -80 -72
-168 -91 -197 -19 -28 -31 -54 -28 -57 3 -3 482 -6 1064 -6 l1058 0 0 -945 0
-945 -937 0 c-575 0 -965 4 -1008 10 -114 17 -182 69 -234 180 l-26 55 -3
1848 -2 1847 -950 0 -950 0 0 -2131z"/>
<path d="M5960 5180 l0 -2920 820 0 820 0 0 1895 0 1895 543 0 543 0 41 68
c22 37 62 124 88 192 63 168 109 252 174 322 68 74 107 97 262 154 157 57 209
86 263 144 61 65 92 131 122 258 51 218 107 284 283 338 106 32 150 54 203
102 68 61 115 145 158 282 22 69 49 140 60 158 l20 32 -2200 0 -2200 0 0
-2920z"/>
</g>
</svg>
